<svg width="276" height="68" viewBox="0 0 276 68" fill="none" xmlns="http://www.w3.org/2000/svg">
<rect width="68" height="68" rx="16" fill="url(#paint0_linear_6310_7705)"/>
<g filter="url(#filter0_i_6310_7705)">
<path d="M21.2222 21L11 47H21.2222L24.873 37.3429L29.254 47H39.4762L29.254 21H21.2222Z" fill="white"/>
<path d="M46.7778 21H36.5556L46.7778 47H57L46.7778 21Z" fill="white"/>
</g>
<path d="M111.71 23.94V45H106.58V32.37L101.87 45H97.73L92.99 32.34V45H87.86V23.94H93.92L99.83 38.52L105.68 23.94H111.71ZM131.179 36.36C131.179 36.84 131.149 37.34 131.089 37.86H119.479C119.559 38.9 119.889 39.7 120.469 40.26C121.069 40.8 121.799 41.07 122.659 41.07C123.939 41.07 124.829 40.53 125.329 39.45H130.789C130.509 40.55 129.999 41.54 129.259 42.42C128.539 43.3 127.629 43.99 126.529 44.49C125.429 44.99 124.199 45.24 122.839 45.24C121.199 45.24 119.739 44.89 118.459 44.19C117.179 43.49 116.179 42.49 115.459 41.19C114.739 39.89 114.379 38.37 114.379 36.63C114.379 34.89 114.729 33.37 115.429 32.07C116.149 30.77 117.149 29.77 118.429 29.07C119.709 28.37 121.179 28.02 122.839 28.02C124.459 28.02 125.899 28.36 127.159 29.04C128.419 29.72 129.399 30.69 130.099 31.95C130.819 33.21 131.179 34.68 131.179 36.36ZM125.929 35.01C125.929 34.13 125.629 33.43 125.029 32.91C124.429 32.39 123.679 32.13 122.779 32.13C121.919 32.13 121.189 32.38 120.589 32.88C120.009 33.38 119.649 34.09 119.509 35.01H125.929ZM139.015 31.05C139.615 30.13 140.365 29.41 141.265 28.89C142.165 28.35 143.165 28.08 144.265 28.08V33.51H142.855C141.575 33.51 140.615 33.79 139.975 34.35C139.335 34.89 139.015 35.85 139.015 37.23V45H133.885V28.26H139.015V31.05ZM145.697 36.63C145.697 34.89 146.047 33.37 146.747 32.07C147.467 30.77 148.457 29.77 149.717 29.07C150.997 28.37 152.457 28.02 154.097 28.02C156.197 28.02 157.947 28.57 159.347 29.67C160.767 30.77 161.697 32.32 162.137 34.32H156.677C156.217 33.04 155.327 32.4 154.007 32.4C153.067 32.4 152.317 32.77 151.757 33.51C151.197 34.23 150.917 35.27 150.917 36.63C150.917 37.99 151.197 39.04 151.757 39.78C152.317 40.5 153.067 40.86 154.007 40.86C155.327 40.86 156.217 40.22 156.677 38.94H162.137C161.697 40.9 160.767 42.44 159.347 43.56C157.927 44.68 156.177 45.24 154.097 45.24C152.457 45.24 150.997 44.89 149.717 44.19C148.457 43.49 147.467 42.49 146.747 41.19C146.047 39.89 145.697 38.37 145.697 36.63ZM181.411 28.26V45H176.281V42.72C175.761 43.46 175.051 44.06 174.151 44.52C173.271 44.96 172.291 45.18 171.211 45.18C169.931 45.18 168.801 44.9 167.821 44.34C166.841 43.76 166.081 42.93 165.541 41.85C165.001 40.77 164.731 39.5 164.731 38.04V28.26H169.831V37.35C169.831 38.47 170.121 39.34 170.701 39.96C171.281 40.58 172.061 40.89 173.041 40.89C174.041 40.89 174.831 40.58 175.411 39.96C175.991 39.34 176.281 38.47 176.281 37.35V28.26H181.411ZM190.226 31.05C190.826 30.13 191.576 29.41 192.476 28.89C193.376 28.35 194.376 28.08 195.476 28.08V33.51H194.066C192.786 33.51 191.826 33.79 191.186 34.35C190.546 34.89 190.226 35.85 190.226 37.23V45H185.096V28.26H190.226V31.05ZM213.708 36.36C213.708 36.84 213.678 37.34 213.618 37.86H202.008C202.088 38.9 202.418 39.7 202.998 40.26C203.598 40.8 204.328 41.07 205.188 41.07C206.468 41.07 207.358 40.53 207.858 39.45H213.318C213.038 40.55 212.528 41.54 211.788 42.42C211.068 43.3 210.158 43.99 209.058 44.49C207.958 44.99 206.728 45.24 205.368 45.24C203.728 45.24 202.268 44.89 200.988 44.19C199.708 43.49 198.708 42.49 197.988 41.19C197.268 39.89 196.908 38.37 196.908 36.63C196.908 34.89 197.258 33.37 197.958 32.07C198.678 30.77 199.678 29.77 200.958 29.07C202.238 28.37 203.708 28.02 205.368 28.02C206.988 28.02 208.428 28.36 209.688 29.04C210.948 29.72 211.928 30.69 212.628 31.95C213.348 33.21 213.708 34.68 213.708 36.36ZM208.458 35.01C208.458 34.13 208.158 33.43 207.558 32.91C206.958 32.39 206.208 32.13 205.308 32.13C204.448 32.13 203.718 32.38 203.118 32.88C202.538 33.38 202.178 34.09 202.038 35.01H208.458ZM227.902 41.04H234.622V45H222.772V23.94H227.902V41.04ZM236.049 36.6C236.049 34.88 236.369 33.37 237.009 32.07C237.669 30.77 238.559 29.77 239.679 29.07C240.799 28.37 242.049 28.02 243.429 28.02C244.609 28.02 245.639 28.26 246.519 28.74C247.419 29.22 248.109 29.85 248.589 30.63V28.26H253.719V45H248.589V42.63C248.089 43.41 247.389 44.04 246.489 44.52C245.609 45 244.579 45.24 243.399 45.24C242.039 45.24 240.799 44.89 239.679 44.19C238.559 43.47 237.669 42.46 237.009 41.16C236.369 39.84 236.049 38.32 236.049 36.6ZM248.589 36.63C248.589 35.35 248.229 34.34 247.509 33.6C246.809 32.86 245.949 32.49 244.929 32.49C243.909 32.49 243.039 32.86 242.319 33.6C241.619 34.32 241.269 35.32 241.269 36.6C241.269 37.88 241.619 38.9 242.319 39.66C243.039 40.4 243.909 40.77 244.929 40.77C245.949 40.77 246.809 40.4 247.509 39.66C248.229 38.92 248.589 37.91 248.589 36.63ZM262.56 30.63C263.04 29.85 263.73 29.22 264.63 28.74C265.53 28.26 266.56 28.02 267.72 28.02C269.1 28.02 270.35 28.37 271.47 29.07C272.59 29.77 273.47 30.77 274.11 32.07C274.77 33.37 275.1 34.88 275.1 36.6C275.1 38.32 274.77 39.84 274.11 41.16C273.47 42.46 272.59 43.47 271.47 44.19C270.35 44.89 269.1 45.24 267.72 45.24C266.54 45.24 265.51 45.01 264.63 44.55C263.75 44.07 263.06 43.44 262.56 42.66V45H257.43V22.8H262.56V30.63ZM269.88 36.6C269.88 35.32 269.52 34.32 268.8 33.6C268.1 32.86 267.23 32.49 266.19 32.49C265.17 32.49 264.3 32.86 263.58 33.6C262.88 34.34 262.53 35.35 262.53 36.63C262.53 37.91 262.88 38.92 263.58 39.66C264.3 40.4 265.17 40.77 266.19 40.77C267.21 40.77 268.08 40.4 268.8 39.66C269.52 38.9 269.88 37.88 269.88 36.6Z" fill="white"/>
<defs>
<filter id="filter0_i_6310_7705" x="11" y="21" width="46" height="30" filterUnits="userSpaceOnUse" color-interpolation-filters="sRGB">
<feFlood flood-opacity="0" result="BackgroundImageFix"/>
<feBlend mode="normal" in="SourceGraphic" in2="BackgroundImageFix" result="shape"/>
<feColorMatrix in="SourceAlpha" type="matrix" values="0 0 0 0 0 0 0 0 0 0 0 0 0 0 0 0 0 0 127 0" result="hardAlpha"/>
<feOffset dy="4"/>
<feGaussianBlur stdDeviation="3"/>
<feComposite in2="hardAlpha" operator="arithmetic" k2="-1" k3="1"/>
<feColorMatrix type="matrix" values="0 0 0 0 0 0 0 0 0 0 0 0 0 0 0 0 0 0 0.08 0"/>
<feBlend mode="normal" in2="shape" result="effect1_innerShadow_6310_7705"/>
</filter>
<linearGradient id="paint0_linear_6310_7705" x1="34" y1="0" x2="34" y2="68" gradientUnits="userSpaceOnUse">
<stop stop-color="#89C9FF"/>
<stop offset="1" stop-color="#2898F7"/>
</linearGradient>
</defs>
</svg>
